<mxfile host="app.diagrams.net" modified="2024-05-23T03:42:00.964Z" agent="Mozilla/5.0 (Windows NT 10.0; Win64; x64) AppleWebKit/537.36 (KHTML, like Gecko) Chrome/122.0.0.0 Safari/537.36" etag="lowgvGgy-F1IsWUsje2l" version="24.4.6" type="device">
  <diagram name="PÃ¡gina-1" id="wKm3wzQSD6OJzjYDNfsF">
    <mxGraphModel dx="1562" dy="810" grid="1" gridSize="10" guides="1" tooltips="1" connect="1" arrows="1" fold="1" page="1" pageScale="1" pageWidth="827" pageHeight="1169" math="0" shadow="0">
      <root>
        <mxCell id="0" />
        <mxCell id="1" parent="0" />
        <mxCell id="3L6Oi5qG_B6fQsZclIJL-3" value="" style="edgeStyle=orthogonalEdgeStyle;rounded=0;orthogonalLoop=1;jettySize=auto;html=1;" parent="1" source="3L6Oi5qG_B6fQsZclIJL-1" target="3L6Oi5qG_B6fQsZclIJL-2" edge="1">
          <mxGeometry relative="1" as="geometry" />
        </mxCell>
        <mxCell id="3L6Oi5qG_B6fQsZclIJL-5" value="" style="edgeStyle=orthogonalEdgeStyle;rounded=0;orthogonalLoop=1;jettySize=auto;html=1;" parent="1" source="3L6Oi5qG_B6fQsZclIJL-1" edge="1">
          <mxGeometry relative="1" as="geometry">
            <mxPoint x="250" y="470" as="targetPoint" />
          </mxGeometry>
        </mxCell>
        <mxCell id="3L6Oi5qG_B6fQsZclIJL-13" style="edgeStyle=orthogonalEdgeStyle;rounded=0;orthogonalLoop=1;jettySize=auto;html=1;exitX=0.75;exitY=1;exitDx=0;exitDy=0;" parent="1" source="3L6Oi5qG_B6fQsZclIJL-1" target="3L6Oi5qG_B6fQsZclIJL-14" edge="1">
          <mxGeometry relative="1" as="geometry">
            <mxPoint x="480" y="480" as="targetPoint" />
          </mxGeometry>
        </mxCell>
        <mxCell id="3L6Oi5qG_B6fQsZclIJL-1" value="NodeJS Backend" style="rounded=0;whiteSpace=wrap;html=1;" parent="1" vertex="1">
          <mxGeometry x="510" y="330" width="120" height="60" as="geometry" />
        </mxCell>
        <mxCell id="3L6Oi5qG_B6fQsZclIJL-2" value="Express HTTP server" style="whiteSpace=wrap;html=1;rounded=0;" parent="1" vertex="1">
          <mxGeometry x="490" y="220" width="160" height="60" as="geometry" />
        </mxCell>
        <mxCell id="3L6Oi5qG_B6fQsZclIJL-7" value="" style="shape=cube;whiteSpace=wrap;html=1;boundedLbl=1;backgroundOutline=1;darkOpacity=0.05;darkOpacity2=0.1;" parent="1" vertex="1">
          <mxGeometry x="300" y="630" width="420" height="130" as="geometry" />
        </mxCell>
        <mxCell id="3L6Oi5qG_B6fQsZclIJL-8" value="Docker LXC on Proxmox" style="text;html=1;align=center;verticalAlign=middle;resizable=0;points=[];autosize=1;strokeColor=none;fillColor=none;" parent="1" vertex="1">
          <mxGeometry x="550" y="600" width="160" height="30" as="geometry" />
        </mxCell>
        <mxCell id="3L6Oi5qG_B6fQsZclIJL-9" value="Container 1" style="whiteSpace=wrap;html=1;aspect=fixed;" parent="1" vertex="1">
          <mxGeometry x="330" y="665" width="80" height="80" as="geometry" />
        </mxCell>
        <mxCell id="3L6Oi5qG_B6fQsZclIJL-10" value="Container 2" style="whiteSpace=wrap;html=1;aspect=fixed;" parent="1" vertex="1">
          <mxGeometry x="430" y="665" width="80" height="80" as="geometry" />
        </mxCell>
        <mxCell id="3L6Oi5qG_B6fQsZclIJL-11" value="Container 3" style="whiteSpace=wrap;html=1;aspect=fixed;" parent="1" vertex="1">
          <mxGeometry x="530" y="665" width="80" height="80" as="geometry" />
        </mxCell>
        <mxCell id="3L6Oi5qG_B6fQsZclIJL-12" value="Container 4" style="whiteSpace=wrap;html=1;aspect=fixed;" parent="1" vertex="1">
          <mxGeometry x="630" y="665" width="80" height="80" as="geometry" />
        </mxCell>
        <mxCell id="3L6Oi5qG_B6fQsZclIJL-15" value="" style="edgeStyle=orthogonalEdgeStyle;rounded=0;orthogonalLoop=1;jettySize=auto;html=1;" parent="1" source="3L6Oi5qG_B6fQsZclIJL-14" target="3L6Oi5qG_B6fQsZclIJL-7" edge="1">
          <mxGeometry relative="1" as="geometry" />
        </mxCell>
        <mxCell id="3L6Oi5qG_B6fQsZclIJL-14" value="Docker Monitoring Microservice&amp;nbsp;&lt;div&gt;(Maybe python?)&lt;/div&gt;&lt;div&gt;(Or just do it in Node Directly on the backend)&lt;/div&gt;" style="rounded=0;whiteSpace=wrap;html=1;" parent="1" vertex="1">
          <mxGeometry x="460" y="470" width="280" height="90" as="geometry" />
        </mxCell>
        <mxCell id="3L6Oi5qG_B6fQsZclIJL-17" style="edgeStyle=orthogonalEdgeStyle;rounded=0;orthogonalLoop=1;jettySize=auto;html=1;exitX=1;exitY=0.5;exitDx=0;exitDy=0;entryX=0.5;entryY=0;entryDx=0;entryDy=0;" parent="1" source="3L6Oi5qG_B6fQsZclIJL-16" target="3L6Oi5qG_B6fQsZclIJL-2" edge="1">
          <mxGeometry relative="1" as="geometry" />
        </mxCell>
        <mxCell id="3L6Oi5qG_B6fQsZclIJL-20" value="" style="edgeStyle=orthogonalEdgeStyle;rounded=0;orthogonalLoop=1;jettySize=auto;html=1;" parent="1" source="3L6Oi5qG_B6fQsZclIJL-16" target="3L6Oi5qG_B6fQsZclIJL-19" edge="1">
          <mxGeometry relative="1" as="geometry" />
        </mxCell>
        <mxCell id="3L6Oi5qG_B6fQsZclIJL-16" value="Server-rendered FE&lt;div&gt;through express&lt;/div&gt;" style="rounded=0;whiteSpace=wrap;html=1;" parent="1" vertex="1">
          <mxGeometry x="250" y="150" width="170" height="60" as="geometry" />
        </mxCell>
        <mxCell id="3L6Oi5qG_B6fQsZclIJL-18" value="My Grandma" style="shape=umlActor;verticalLabelPosition=bottom;verticalAlign=top;html=1;outlineConnect=0;" parent="1" vertex="1">
          <mxGeometry x="170" y="140" width="30" height="60" as="geometry" />
        </mxCell>
        <mxCell id="3L6Oi5qG_B6fQsZclIJL-19" value="Dynamic APP list&lt;div&gt;based on JSON config or docker-compose.yml&lt;/div&gt;" style="shape=process;whiteSpace=wrap;html=1;backgroundOutline=1;rounded=0;" parent="1" vertex="1">
          <mxGeometry x="230" y="250" width="210" height="60" as="geometry" />
        </mxCell>
        <mxCell id="d-3PyobPNUedQSEDPMd_-1" value="DuckDB Database&amp;nbsp;ðŸª¿" style="shape=cylinder3;whiteSpace=wrap;html=1;boundedLbl=1;backgroundOutline=1;size=15;" vertex="1" parent="1">
          <mxGeometry x="170" y="470" width="130" height="124" as="geometry" />
        </mxCell>
      </root>
    </mxGraphModel>
  </diagram>
</mxfile>
